<?xml version="1.0" encoding="UTF-8"?>
<svg xmlns="http://www.w3.org/2000/svg"
    xmlns:xlink="http://www.w3.org/1999/xlink" viewBox="0 0 236.63 149.45">
    <g id="a"/>
    <g id="b">
        <g id="c">
            <path class="e" d="M45.2,137.17c3.17,.31,5.49,3.14,5.18,6.31-.31,3.17-3.14,5.49-6.31,5.18-12.15-1.23-23.73-4.76-32.03-12.33-16.77-15.3-15.39-43.18,.23-58.54,6.61-6.5,15.43-10.88,25.18-11.99,4.83-22,26.38-35.63,48.26-32.13,.47,.08,.94,.16,1.41,.25,4.27-9.34,11.27-17.38,20.1-23.28C117.86,3.51,130.5-.02,143.13,0h.06c14.32,.04,28.61,4.65,39.94,13.78,9.98,8.05,17.02,19.04,19.48,31.49,9.53,3.67,17.74,10.09,23.7,18.32,6.69,9.24,10.15,20.24,10.33,31.23v1.74c-.21,12.91-4.96,25.67-14.36,35.42-9.16,9.5-22.05,15.66-36.76,17.14-3.17,.31-6-2-6.31-5.18-.31-3.17,2-6,5.17-6.31,11.93-1.2,22.29-6.11,29.58-13.66,13.93-14.45,14.61-37.58,2.99-53.62-5.15-7.11-12.38-12.49-20.74-15.14-2.34-.51-4.2-2.44-4.51-4.95-1.33-10.87-7.17-20.55-15.8-27.51-17.42-14.04-43.7-14.97-62.25-2.57-8.18,5.47-14.37,13.15-17.44,22.03-.03,.11-.06,.23-.1,.34-1,3.03-4.27,4.68-7.3,3.69-18.22-6.03-38.78,5.73-40.63,25.52-.26,3-2.8,5.32-5.86,5.26h0c-8.29,.08-16.01,3.14-21.94,8.97-10.92,10.73-12.39,30.96-.55,41.77,6.23,5.69,15.48,8.39,25.39,9.39h0Zm33.73-40.03c-3.16,0-5.75,2.59-5.75,5.75v40.8c0,3.16,2.59,5.75,5.75,5.75h0c3.16,0,5.75-2.59,5.75-5.75v-40.8c0-3.16-2.59-5.75-5.75-5.75h0Zm17.8,12.15h0c-3.16,0-5.75,2.59-5.75,5.75v28.65c0,3.16,2.59,5.75,5.75,5.75h0c3.16,0,5.75-2.59,5.75-5.75v-28.65c0-3.16-2.59-5.75-5.75-5.75h0Zm17.8-25.61h0c-3.16,0-5.75,2.59-5.75,5.75v54.26c0,3.16,2.59,5.75,5.75,5.75h0c3.16,0,5.75-2.59,5.75-5.75v-54.26c0-3.16-2.59-5.75-5.75-5.75h0Zm17.8,22.14h0c-3.17,0-5.75,2.59-5.75,5.75v32.12c0,3.16,2.59,5.75,5.75,5.75h0c3.16,0,5.75-2.59,5.75-5.75v-32.12c0-3.16-2.59-5.75-5.75-5.75h0Zm17.8-41.66h0c-3.16,0-5.75,2.59-5.75,5.75v73.78c0,3.16,2.59,5.75,5.75,5.75h0c3.16,0,5.75-2.59,5.75-5.75V69.91c0-3.16-2.59-5.75-5.75-5.75h0Zm17.8,58.16h0c-3.16,0-5.75,2.59-5.75,5.75v15.62c0,3.16,2.59,5.75,5.75,5.75h0c3.16,0,5.75-2.59,5.75-5.75v-15.62c0-3.16-2.59-5.75-5.75-5.75h0Zm-106.78-9.55h0c-3.16,0-5.75,2.59-5.75,5.75v25.17c0,3.16,2.59,5.75,5.75,5.75h0c3.16,0,5.75-2.59,5.75-5.75v-25.17c0-3.16-2.59-5.75-5.75-5.75h0Z"/>
        </g>
    </g>
</svg>